<svg width="33" height="33" viewBox="0 0 33 33" fill="none" xmlns="http://www.w3.org/2000/svg">
<circle cx="16.5" cy="16.1" r="15.6" fill="url(#paint0_linear_1_466)" fill-opacity="0.05" stroke="url(#paint1_linear_1_466)"/>
<path d="M16.0744 13.8394C14.5962 13.8394 13.3899 15.0457 13.3899 16.5239C13.3899 18.0021 14.5962 19.2084 16.0744 19.2084C17.5526 19.2084 18.7589 18.0021 18.7589 16.5239C18.7589 15.0457 17.5526 13.8394 16.0744 13.8394ZM24.1258 16.5239C24.1258 15.4122 24.1359 14.3106 24.0734 13.201C24.011 11.9121 23.717 10.7683 22.7745 9.82578C21.83 8.88128 20.6881 8.58927 19.3993 8.52684C18.2876 8.46441 17.186 8.47448 16.0764 8.47448C14.9647 8.47448 13.8632 8.46441 12.7535 8.52684C11.4647 8.58927 10.3208 8.88329 9.3783 9.82578C8.4338 10.7703 8.14179 11.9121 8.07936 13.201C8.01693 14.3127 8.027 15.4142 8.027 16.5239C8.027 17.6335 8.01693 18.7371 8.07936 19.8467C8.14179 21.1356 8.43581 22.2795 9.3783 23.222C10.3228 24.1665 11.4647 24.4585 12.7535 24.5209C13.8652 24.5833 14.9668 24.5733 16.0764 24.5733C17.188 24.5733 18.2896 24.5833 19.3993 24.5209C20.6881 24.4585 21.832 24.1645 22.7745 23.222C23.719 22.2775 24.011 21.1356 24.0734 19.8467C24.1379 18.7371 24.1258 17.6355 24.1258 16.5239ZM16.0744 20.6543C13.7887 20.6543 11.944 18.8096 11.944 16.5239C11.944 14.2381 13.7887 12.3934 16.0744 12.3934C18.3601 12.3934 20.2048 14.2381 20.2048 16.5239C20.2048 18.8096 18.3601 20.6543 16.0744 20.6543ZM20.374 13.1889C19.8403 13.1889 19.4093 12.758 19.4093 12.2243C19.4093 11.6906 19.8403 11.2596 20.374 11.2596C20.9076 11.2596 21.3386 11.6906 21.3386 12.2243C21.3388 12.351 21.3139 12.4765 21.2655 12.5936C21.2171 12.7107 21.146 12.8171 21.0564 12.9067C20.9668 12.9963 20.8604 13.0674 20.7433 13.1158C20.6262 13.1642 20.5007 13.1891 20.374 13.1889Z" fill="white" fill-opacity="0.8"/>
<defs>
<linearGradient id="paint0_linear_1_466" x1="16.5" y1="0" x2="16.5" y2="32.2" gradientUnits="userSpaceOnUse">
<stop stop-color="#FEFEFF" stop-opacity="0.29"/>
<stop offset="1" stop-color="white" stop-opacity="0.4"/>
</linearGradient>
<linearGradient id="paint1_linear_1_466" x1="-1.14445" y1="2.15937" x2="35.9022" y2="6.78831" gradientUnits="userSpaceOnUse">
<stop stop-color="white" stop-opacity="0.08"/>
<stop offset="1" stop-color="white" stop-opacity="0.07"/>
</linearGradient>
</defs>
</svg>
