<svg width="33" height="33" viewBox="0 0 33 33" fill="none" xmlns="http://www.w3.org/2000/svg">
<circle cx="16.7" cy="16.1" r="15.6" fill="url(#paint0_linear_1_469)" fill-opacity="0.05" stroke="url(#paint1_linear_1_469)"/>
<path d="M9.9212 13.7054C9.9212 12.9727 10.0493 12.2805 10.3017 11.6344C10.5428 11.0069 10.9011 10.431 11.3574 9.93736C11.8128 9.45018 12.3339 9.02891 12.9057 8.68573C13.4924 8.33082 14.1275 8.06307 14.7912 7.89087C15.4628 7.71449 16.1545 7.62554 16.8489 7.62622C17.9216 7.62622 18.9199 7.85319 19.8457 8.30525C20.7594 8.74906 21.5371 9.43016 22.0975 10.2773C22.6758 11.1391 22.963 12.1138 22.963 13.2006C22.963 13.8523 22.899 14.4899 22.7681 15.1134C22.6395 15.7365 22.4352 16.3415 22.1597 16.915C21.897 17.4702 21.5536 17.9833 21.1406 18.4379C20.7256 18.8852 20.2229 19.2423 19.6639 19.487C19.0571 19.753 18.4006 19.8869 17.738 19.8797C17.2775 19.8797 16.8179 19.7714 16.3639 19.5539C15.91 19.3373 15.5841 19.0397 15.3882 18.6583C15.3195 18.9229 15.2253 19.3053 15.1001 19.8053C14.9795 20.3045 14.8985 20.6266 14.8627 20.7726C14.8251 20.9176 14.7554 21.1596 14.6537 21.4949C14.5847 21.7429 14.4962 21.9851 14.389 22.2191L14.065 22.8539C13.9249 23.1263 13.7683 23.3898 13.596 23.6431C13.4256 23.8899 13.2146 24.1846 12.9632 24.5237L12.8228 24.5736L12.7296 24.4719C12.6288 23.4048 12.577 22.7663 12.577 22.5554C12.577 21.9309 12.6514 21.2303 12.7983 20.4524C12.9424 19.6754 13.1704 18.6988 13.4764 17.5244C13.7825 16.3509 13.9577 15.6606 14.0048 15.4562C13.7891 15.0164 13.6799 14.4419 13.6799 13.7356C13.6799 13.1714 13.856 12.6431 14.2091 12.1458C14.5632 11.6505 15.0106 11.4028 15.5531 11.4028C15.9684 11.4028 16.2905 11.5403 16.5212 11.8162C16.7529 12.0912 16.8659 12.4378 16.8659 12.8606C16.8659 13.3089 16.7171 13.9578 16.4176 14.8064C16.1181 15.6559 15.9693 16.2897 15.9693 16.7107C15.9693 17.1373 16.1219 17.4942 16.427 17.7739C16.7282 18.0538 17.1264 18.2054 17.5374 18.1968C17.9103 18.1968 18.256 18.112 18.5771 17.9416C18.8932 17.7761 19.1669 17.5398 19.3767 17.2512C19.8337 16.6243 20.1594 15.9116 20.3345 15.1558C20.4249 14.7583 20.4946 14.3807 20.5379 14.0256C20.5841 13.6687 20.6038 13.3315 20.6038 13.0113C20.6038 11.8369 20.2309 10.9215 19.4897 10.266C18.7448 9.61056 17.7747 9.2847 16.5815 9.2847C15.2244 9.2847 14.0895 9.72357 13.1807 10.6041C12.2709 11.4819 11.8132 12.5979 11.8132 13.9512C11.8132 14.2498 11.8584 14.538 11.9441 14.8167C12.028 15.0946 12.1193 15.3159 12.2182 15.4797C12.3162 15.6408 12.4084 15.7981 12.4923 15.9431C12.577 16.0881 12.6213 16.1917 12.6213 16.2539C12.6213 16.4441 12.5714 16.6918 12.4706 16.9979C12.3661 17.304 12.2427 17.4565 12.0939 17.4565C12.0798 17.4565 12.0214 17.4462 11.9197 17.4245C11.5674 17.3194 11.2493 17.1228 10.9977 16.8547C10.7306 16.577 10.5199 16.2501 10.377 15.8922C10.2346 15.5356 10.1237 15.1673 10.0455 14.7913C9.96107 14.4356 9.91934 14.071 9.9212 13.7054Z" fill="white" fill-opacity="0.8"/>
<defs>
<linearGradient id="paint0_linear_1_469" x1="16.7" y1="0" x2="16.7" y2="32.2" gradientUnits="userSpaceOnUse">
<stop stop-color="#FEFEFF" stop-opacity="0.29"/>
<stop offset="1" stop-color="white" stop-opacity="0.4"/>
</linearGradient>
<linearGradient id="paint1_linear_1_469" x1="-0.94444" y1="2.15937" x2="36.1022" y2="6.78831" gradientUnits="userSpaceOnUse">
<stop stop-color="white" stop-opacity="0.08"/>
<stop offset="1" stop-color="white" stop-opacity="0.07"/>
</linearGradient>
</defs>
</svg>
