<svg width="33" height="33" viewBox="0 0 33 33" fill="none" xmlns="http://www.w3.org/2000/svg">
<circle cx="16.3" cy="16.1" r="15.6" fill="url(#paint0_linear_1_463)" fill-opacity="0.05" stroke="url(#paint1_linear_1_463)"/>
<path d="M24.7737 10.9568C24.1505 11.2256 23.4723 11.4191 22.7737 11.4945C23.499 11.0636 24.0421 10.3828 24.3012 9.57996C23.6206 9.98483 22.875 10.2687 22.0975 10.4191C21.7725 10.0717 21.3795 9.79491 20.9429 9.60604C20.5063 9.41718 20.0355 9.32025 19.5598 9.3213C17.6351 9.3213 16.0872 10.8814 16.0872 12.7959C16.0872 13.0647 16.1198 13.3336 16.1727 13.5923C13.2908 13.4415 10.7205 12.0647 9.01171 9.95675C8.70035 10.4886 8.53719 11.0941 8.5392 11.7103C8.5392 12.9161 9.15225 13.9792 10.0871 14.6045C9.53617 14.5828 8.99815 14.4314 8.5168 14.1625V14.2053C8.5168 15.8937 9.7103 17.2929 11.301 17.6147C11.0023 17.6923 10.6951 17.732 10.3865 17.7329C10.1604 17.7329 9.94656 17.7105 9.73067 17.6799C10.1706 19.0567 11.4517 20.0567 12.9772 20.0893C11.7837 21.0242 10.2887 21.5741 8.66547 21.5741C8.37423 21.5741 8.10538 21.5639 7.82635 21.5313C9.3661 22.5191 11.193 23.0894 13.1605 23.0894C19.5476 23.0894 23.0425 17.798 23.0425 13.2053C23.0425 13.0546 23.0425 12.9039 23.0323 12.7531C23.7085 12.2582 24.3012 11.6452 24.7737 10.9568Z" fill="white" fill-opacity="0.8"/>
<defs>
<linearGradient id="paint0_linear_1_463" x1="16.3" y1="0" x2="16.3" y2="32.2" gradientUnits="userSpaceOnUse">
<stop stop-color="#FEFEFF" stop-opacity="0.29"/>
<stop offset="1" stop-color="white" stop-opacity="0.4"/>
</linearGradient>
<linearGradient id="paint1_linear_1_463" x1="-1.34446" y1="2.15937" x2="35.7022" y2="6.78831" gradientUnits="userSpaceOnUse">
<stop stop-color="white" stop-opacity="0.08"/>
<stop offset="1" stop-color="white" stop-opacity="0.07"/>
</linearGradient>
</defs>
</svg>
