<svg width="74" height="74" viewBox="0 0 74 74" fill="none" xmlns="http://www.w3.org/2000/svg">
<rect width="74" height="74" rx="37" fill="url(#paint0_linear_1_94)"/>
<path d="M36.9998 48.3775C34.5518 48.3775 32.1587 47.6515 30.1233 46.2915C28.0878 44.9314 26.5013 42.9983 25.5645 40.7366C24.6277 38.4749 24.3826 35.9862 24.8602 33.5852C25.3377 31.1842 26.5166 28.9788 28.2476 27.2477C29.9786 25.5167 32.1841 24.3379 34.5851 23.8603C36.9861 23.3827 39.4748 23.6278 41.7365 24.5646C43.9982 25.5014 45.9313 27.0879 47.2914 29.1234C48.6514 31.1588 49.3773 33.5519 49.3773 36C49.3736 39.2815 48.0683 42.4276 45.7479 44.748C43.4275 47.0685 40.2814 48.3737 36.9998 48.3775ZM36.9998 24.7576C34.7763 24.7576 32.6027 25.4169 30.7539 26.6523C28.9051 27.8876 27.4641 29.6434 26.6132 31.6977C25.7623 33.752 25.5397 36.0124 25.9735 38.1932C26.4073 40.374 27.478 42.3772 29.0503 43.9495C30.6225 45.5218 32.6257 46.5925 34.8066 47.0263C36.9874 47.4601 39.2478 47.2375 41.3021 46.3866C43.3564 45.5357 45.1122 44.0947 46.3475 42.2459C47.5829 40.3971 48.2422 38.2235 48.2422 36C48.2388 33.0194 47.0532 30.1618 44.9456 28.0542C42.838 25.9466 39.9804 24.761 36.9998 24.7576Z" fill="white"/>
<path d="M37 45.4443C35.1321 45.4443 33.3061 44.8904 31.753 43.8527C30.1999 42.8149 28.9894 41.3399 28.2745 39.6142C27.5597 37.8885 27.3727 35.9895 27.7371 34.1575C28.1015 32.3255 29.001 30.6427 30.3218 29.3218C31.6426 28.001 33.3255 27.1016 35.1575 26.7371C36.9895 26.3727 38.8884 26.5598 40.6142 27.2746C42.3399 27.9894 43.8149 29.1999 44.8526 30.753C45.8904 32.3061 46.4443 34.1321 46.4443 36C46.4414 38.5039 45.4455 40.9045 43.675 42.675C41.9044 44.4455 39.5039 45.4415 37 45.4443ZM37 27.6908C35.3566 27.6908 33.7501 28.1781 32.3836 29.0912C31.0172 30.0042 29.9522 31.3019 29.3233 32.8202C28.6944 34.3385 28.5298 36.0092 28.8504 37.621C29.171 39.2329 29.9624 40.7134 31.1245 41.8755C32.2865 43.0375 33.7671 43.8289 35.3789 44.1495C36.9908 44.4701 38.6615 44.3056 40.1798 43.6767C41.6981 43.0478 42.9958 41.9828 43.9088 40.6163C44.8218 39.2499 45.3092 37.6434 45.3092 36C45.3066 33.797 44.4304 31.6851 42.8726 30.1273C41.3149 28.5696 39.2029 27.6934 37 27.6908Z" fill="white"/>
<path d="M37.9454 36.1817H35.0588C34.9083 36.1817 34.7639 36.1219 34.6575 36.0154C34.551 35.909 34.4912 35.7646 34.4912 35.6141V30.9742C34.4912 30.8237 34.551 30.6793 34.6575 30.5729C34.7639 30.4665 34.9083 30.4067 35.0588 30.4067H37.9454C38.328 30.4013 38.7079 30.472 39.0629 30.6147C39.418 30.7574 39.7411 30.9693 40.0135 31.2379C40.286 31.5066 40.5023 31.8267 40.65 32.1797C40.7977 32.5327 40.8737 32.9115 40.8737 33.2942C40.8737 33.6768 40.7977 34.0556 40.65 34.4086C40.5023 34.7616 40.286 35.0817 40.0135 35.3504C39.7411 35.6191 39.418 35.8309 39.0629 35.9736C38.7079 36.1163 38.328 36.187 37.9454 36.1817ZM35.6264 35.0465H37.9454C38.1782 35.0507 38.4095 35.0085 38.6258 34.9223C38.8421 34.8361 39.039 34.7077 39.2051 34.5446C39.3712 34.3814 39.5031 34.1868 39.5932 33.9721C39.6832 33.7575 39.7296 33.527 39.7296 33.2942C39.7296 33.0613 39.6832 32.8309 39.5932 32.6162C39.5031 32.4015 39.3712 32.2069 39.2051 32.0437C39.039 31.8806 38.8421 31.7522 38.6258 31.666C38.4095 31.5798 38.1782 31.5376 37.9454 31.5418H35.6264V35.0465Z" fill="white"/>
<path d="M38.6827 40.8243H35.0588C34.9083 40.8243 34.7639 40.7645 34.6575 40.6581C34.551 40.5517 34.4912 40.4073 34.4912 40.2568V35.6141C34.4912 35.4635 34.551 35.3192 34.6575 35.2127C34.7639 35.1063 34.9083 35.0465 35.0588 35.0465H38.6827C39.4486 35.0465 40.1831 35.3508 40.7247 35.8923C41.2663 36.4339 41.5705 37.1684 41.5705 37.9343C41.5705 38.7002 41.2663 39.4347 40.7247 39.9763C40.1831 40.5178 39.4486 40.8221 38.6827 40.8221V40.8243ZM35.6264 39.6892H38.6827C39.1476 39.6892 39.5933 39.5046 39.922 39.1759C40.2507 38.8472 40.4354 38.4014 40.4354 37.9366C40.4354 37.4717 40.2507 37.0259 39.922 36.6973C39.5933 36.3686 39.1476 36.1839 38.6827 36.1839H35.6264V39.6892Z" fill="white"/>
<path d="M35.0588 31.5417H34.2301C34.0796 31.5417 33.9352 31.4819 33.8288 31.3755C33.7224 31.2691 33.6626 31.1247 33.6626 30.9742C33.6626 30.8237 33.7224 30.6793 33.8288 30.5729C33.9352 30.4664 34.0796 30.4066 34.2301 30.4066H35.0588C35.2093 30.4066 35.3537 30.4664 35.4601 30.5729C35.5666 30.6793 35.6264 30.8237 35.6264 30.9742C35.6264 31.1247 35.5666 31.2691 35.4601 31.3755C35.3537 31.4819 35.2093 31.5417 35.0588 31.5417Z" fill="white"/>
<path d="M35.5244 31.5418C35.3739 31.5418 35.2296 31.482 35.1231 31.3755C35.0167 31.2691 34.9569 31.1247 34.9569 30.9742V29.9299C34.9569 29.7793 35.0167 29.635 35.1231 29.5285C35.2296 29.4221 35.3739 29.3623 35.5244 29.3623C35.675 29.3623 35.8193 29.4221 35.9258 29.5285C36.0322 29.635 36.092 29.7793 36.092 29.9299V30.9742C36.092 31.1247 36.0322 31.2691 35.9258 31.3755C35.8193 31.482 35.675 31.5418 35.5244 31.5418Z" fill="white"/>
<path d="M37.3317 31.5418C37.1812 31.5418 37.0368 31.482 36.9304 31.3755C36.824 31.2691 36.7642 31.1247 36.7642 30.9742V29.9299C36.7642 29.7793 36.824 29.635 36.9304 29.5285C37.0368 29.4221 37.1812 29.3623 37.3317 29.3623C37.4823 29.3623 37.6266 29.4221 37.7331 29.5285C37.8395 29.635 37.8993 29.7793 37.8993 29.9299V30.9742C37.8993 31.1247 37.8395 31.2691 37.7331 31.3755C37.6266 31.482 37.4823 31.5418 37.3317 31.5418Z" fill="white"/>
<path d="M35.5244 41.8658C35.3739 41.8658 35.2296 41.806 35.1231 41.6996C35.0167 41.5931 34.9569 41.4488 34.9569 41.2983V40.2568C34.9569 40.1062 35.0167 39.9619 35.1231 39.8554C35.2296 39.749 35.3739 39.6892 35.5244 39.6892C35.675 39.6892 35.8193 39.749 35.9258 39.8554C36.0322 39.9619 36.092 40.1062 36.092 40.2568V41.3005C36.0914 41.4507 36.0313 41.5944 35.925 41.7004C35.8186 41.8063 35.6746 41.8658 35.5244 41.8658Z" fill="white"/>
<path d="M37.3317 41.8658C37.1812 41.8658 37.0368 41.806 36.9304 41.6996C36.824 41.5931 36.7642 41.4488 36.7642 41.2983V40.2568C36.7642 40.1062 36.824 39.9619 36.9304 39.8554C37.0368 39.749 37.1812 39.6892 37.3317 39.6892C37.4823 39.6892 37.6266 39.749 37.7331 39.8554C37.8395 39.9619 37.8993 40.1062 37.8993 40.2568V41.3005C37.8987 41.4507 37.8386 41.5944 37.7323 41.7004C37.6259 41.8063 37.4819 41.8658 37.3317 41.8658Z" fill="white"/>
<path d="M35.0588 40.8244H34.2301C34.0796 40.8244 33.9352 40.7646 33.8288 40.6581C33.7224 40.5517 33.6626 40.4073 33.6626 40.2568C33.6626 40.1063 33.7224 39.9619 33.8288 39.8554C33.9352 39.749 34.0796 39.6892 34.2301 39.6892H35.0588C35.2093 39.6892 35.3537 39.749 35.4601 39.8554C35.5666 39.9619 35.6264 40.1063 35.6264 40.2568C35.6264 40.4073 35.5666 40.5517 35.4601 40.6581C35.3537 40.7646 35.2093 40.8244 35.0588 40.8244Z" fill="white"/>
<path d="M37 24.7576C36.8495 24.7576 36.7051 24.6978 36.5987 24.5913C36.4922 24.4849 36.4324 24.3405 36.4324 24.19V20.2534C36.4324 20.1028 36.4922 19.9585 36.5987 19.852C36.7051 19.7456 36.8495 19.6858 37 19.6858C37.1505 19.6858 37.2949 19.7456 37.4013 19.852C37.5078 19.9585 37.5676 20.1028 37.5676 20.2534V24.19C37.5676 24.3405 37.5078 24.4849 37.4013 24.5913C37.2949 24.6978 37.1505 24.7576 37 24.7576Z" fill="white"/>
<path d="M36.9997 20.821C36.5363 20.821 36.0833 20.6836 35.698 20.4261C35.3127 20.1687 35.0124 19.8028 34.8351 19.3746C34.6578 18.9465 34.6114 18.4755 34.7018 18.021C34.7922 17.5665 35.0153 17.149 35.343 16.8214C35.6707 16.4937 36.0881 16.2706 36.5426 16.1802C36.9971 16.0897 37.4682 16.1361 37.8963 16.3135C38.3244 16.4908 38.6903 16.7911 38.9477 17.1764C39.2052 17.5617 39.3426 18.0147 39.3426 18.4781C39.3418 19.0992 39.0948 19.6947 38.6555 20.1339C38.2163 20.5731 37.6208 20.8202 36.9997 20.821ZM36.9997 17.2703C36.7608 17.2703 36.5273 17.3411 36.3287 17.4738C36.1301 17.6065 35.9753 17.7952 35.8838 18.0159C35.7924 18.2365 35.7685 18.4794 35.8151 18.7137C35.8617 18.948 35.9767 19.1632 36.1457 19.3321C36.3146 19.501 36.5298 19.616 36.7641 19.6626C36.9983 19.7092 37.2412 19.6853 37.4619 19.5939C37.6826 19.5025 37.8712 19.3477 38.0039 19.1491C38.1366 18.9504 38.2075 18.7169 38.2075 18.4781C38.2072 18.1578 38.0798 17.8508 37.8534 17.6244C37.6269 17.3979 37.3199 17.2706 36.9997 17.2703Z" fill="white"/>
<path d="M37 52.3142C36.8495 52.3142 36.7051 52.2544 36.5987 52.148C36.4922 52.0415 36.4324 51.8972 36.4324 51.7467V47.81C36.4324 47.6595 36.4922 47.5151 36.5987 47.4087C36.7051 47.3022 36.8495 47.2424 37 47.2424C37.1505 47.2424 37.2949 47.3022 37.4013 47.4087C37.5078 47.5151 37.5676 47.6595 37.5676 47.81V51.7467C37.5676 51.8972 37.5078 52.0415 37.4013 52.148C37.2949 52.2544 37.1505 52.3142 37 52.3142Z" fill="white"/>
<path d="M36.9997 55.8649C36.5363 55.8649 36.0833 55.7275 35.698 55.47C35.3127 55.2126 35.0124 54.8467 34.8351 54.4186C34.6578 53.9905 34.6114 53.5194 34.7018 53.0649C34.7922 52.6104 35.0153 52.193 35.343 51.8653C35.6707 51.5376 36.0881 51.3145 36.5426 51.2241C36.9971 51.1337 37.4682 51.1801 37.8963 51.3574C38.3244 51.5348 38.6903 51.835 38.9477 52.2203C39.2052 52.6056 39.3426 53.0586 39.3426 53.522C39.3418 54.1431 39.0948 54.7386 38.6555 55.1778C38.2163 55.6171 37.6208 55.8641 36.9997 55.8649ZM36.9997 52.3142C36.7608 52.3142 36.5273 52.385 36.3287 52.5178C36.1301 52.6505 35.9753 52.8391 35.8838 53.0598C35.7924 53.2805 35.7685 53.5233 35.8151 53.7576C35.8617 53.9919 35.9767 54.2071 36.1457 54.376C36.3146 54.5449 36.5298 54.66 36.7641 54.7066C36.9983 54.7532 37.2412 54.7292 37.4619 54.6378C37.6826 54.5464 37.8712 54.3916 38.0039 54.193C38.1366 53.9944 38.2075 53.7609 38.2075 53.522C38.2072 53.2018 38.0798 52.8947 37.8534 52.6683C37.6269 52.4419 37.3199 52.3145 36.9997 52.3142Z" fill="white"/>
<path d="M52.7467 36.5675H48.8101C48.6595 36.5675 48.5152 36.5077 48.4087 36.4013C48.3023 36.2948 48.2425 36.1505 48.2425 35.9999C48.2425 35.8494 48.3023 35.7051 48.4087 35.5986C48.5152 35.4922 48.6595 35.4324 48.8101 35.4324H52.7467C52.8972 35.4324 53.0416 35.4922 53.148 35.5986C53.2545 35.7051 53.3143 35.8494 53.3143 35.9999C53.3143 36.1505 53.2545 36.2948 53.148 36.4013C53.0416 36.5077 52.8972 36.5675 52.7467 36.5675Z" fill="white"/>
<path d="M54.5214 38.3429C54.0581 38.3429 53.6051 38.2055 53.2198 37.9481C52.8345 37.6906 52.5342 37.3247 52.3569 36.8966C52.1795 36.4685 52.1331 35.9974 52.2235 35.5429C52.3139 35.0885 52.5371 34.671 52.8648 34.3433C53.1924 34.0157 53.6099 33.7925 54.0644 33.7021C54.5188 33.6117 54.9899 33.6581 55.418 33.8354C55.8461 34.0128 56.2121 34.3131 56.4695 34.6984C56.7269 35.0837 56.8643 35.5366 56.8643 36C56.8636 36.6212 56.6165 37.2167 56.1773 37.6559C55.7381 38.0951 55.1426 38.3422 54.5214 38.3429ZM54.5214 34.7922C54.2826 34.7922 54.049 34.8631 53.8504 34.9958C53.6518 35.1285 53.497 35.3171 53.4056 35.5378C53.3142 35.7585 53.2903 36.0014 53.3369 36.2356C53.3835 36.4699 53.4985 36.6851 53.6674 36.854C53.8363 37.023 54.0515 37.138 54.2858 37.1846C54.5201 37.2312 54.7629 37.2073 54.9836 37.1159C55.2043 37.0244 55.393 36.8696 55.5257 36.671C55.6584 36.4724 55.7292 36.2389 55.7292 36C55.7289 35.6798 55.6016 35.3728 55.3751 35.1463C55.1487 34.9199 54.8417 34.7925 54.5214 34.7922Z" fill="white"/>
<path d="M25.1901 36.5675H21.2535C21.1029 36.5675 20.9586 36.5077 20.8521 36.4013C20.7457 36.2948 20.6859 36.1505 20.6859 35.9999C20.6859 35.8494 20.7457 35.7051 20.8521 35.5986C20.9586 35.4922 21.1029 35.4324 21.2535 35.4324H25.1901C25.3406 35.4324 25.485 35.4922 25.5914 35.5986C25.6979 35.7051 25.7577 35.8494 25.7577 35.9999C25.7577 36.1505 25.6979 36.2948 25.5914 36.4013C25.485 36.5077 25.3406 36.5675 25.1901 36.5675Z" fill="white"/>
<path d="M19.478 38.3429C19.0146 38.3429 18.5616 38.2055 18.1763 37.9481C17.791 37.6906 17.4907 37.3247 17.3134 36.8966C17.1361 36.4685 17.0897 35.9974 17.1801 35.5429C17.2705 35.0885 17.4936 34.671 17.8213 34.3433C18.1489 34.0157 18.5664 33.7925 19.0209 33.7021C19.4754 33.6117 19.9464 33.6581 20.3746 33.8354C20.8027 34.0128 21.1686 34.3131 21.426 34.6984C21.6835 35.0837 21.8209 35.5366 21.8209 36C21.8201 36.6212 21.573 37.2167 21.1338 37.6559C20.6946 38.0951 20.0991 38.3422 19.478 38.3429ZM19.478 34.7922C19.2391 34.7922 19.0056 34.8631 18.807 34.9958C18.6083 35.1285 18.4535 35.3171 18.3621 35.5378C18.2707 35.7585 18.2468 36.0014 18.2934 36.2356C18.34 36.4699 18.455 36.6851 18.6239 36.854C18.7928 37.023 19.008 37.138 19.2423 37.1846C19.4766 37.2312 19.7195 37.2073 19.9402 37.1159C20.1609 37.0244 20.3495 36.8696 20.4822 36.671C20.6149 36.4724 20.6857 36.2389 20.6857 36C20.6854 35.6798 20.5581 35.3728 20.3317 35.1463C20.1052 34.9199 19.7982 34.7925 19.478 34.7922Z" fill="white"/>
<path d="M27.1812 49.6943H22.6497C22.4992 49.6943 22.3548 49.6345 22.2484 49.5281C22.142 49.4216 22.0822 49.2773 22.0822 49.1267C22.0822 48.9762 22.142 48.8319 22.2484 48.7254C22.3548 48.619 22.4992 48.5592 22.6497 48.5592H26.8684L29.1387 44.9177C29.2183 44.7897 29.3455 44.6986 29.4923 44.6645C29.6391 44.6303 29.7934 44.6558 29.9214 44.7355C30.0493 44.8151 30.1404 44.9423 30.1746 45.0891C30.2087 45.2358 30.1832 45.3902 30.1036 45.5181L27.6676 49.427C27.6162 49.5095 27.5445 49.5774 27.4593 49.6242C27.3741 49.671 27.2784 49.6951 27.1812 49.6943Z" fill="white"/>
<path d="M20.8751 51.4696C20.4117 51.4695 19.9588 51.332 19.5736 51.0745C19.1883 50.817 18.8881 50.451 18.7109 50.0229C18.5337 49.5948 18.4873 49.1237 18.5778 48.6693C18.6683 48.2149 18.8915 47.7974 19.2191 47.4698C19.5468 47.1422 19.9643 46.9191 20.4188 46.8288C20.8732 46.7384 21.3443 46.7849 21.7724 46.9622C22.2004 47.1396 22.5663 47.4399 22.8237 47.8251C23.0812 48.2104 23.2186 48.6634 23.2186 49.1267C23.218 49.748 22.9708 50.3437 22.5315 50.783C22.0921 51.2222 21.4964 51.4692 20.8751 51.4696ZM20.8751 47.9189C20.6362 47.9191 20.4028 47.99 20.2042 48.1228C20.0057 48.2556 19.851 48.4442 19.7596 48.6649C19.6683 48.8856 19.6445 49.1285 19.6911 49.3627C19.7378 49.597 19.8529 49.8121 20.0218 49.981C20.1907 50.1498 20.4059 50.2648 20.6402 50.3113C20.8745 50.3579 21.1173 50.3339 21.338 50.2425C21.5586 50.1511 21.7472 49.9963 21.8799 49.7977C22.0126 49.5991 22.0834 49.3656 22.0834 49.1267C22.0831 48.8064 21.9557 48.4993 21.7291 48.2728C21.5026 48.0464 21.1954 47.9191 20.8751 47.9189Z" fill="white"/>
<path d="M29.6217 27.3498C29.5252 27.3499 29.4303 27.3254 29.3458 27.2786C29.2614 27.2319 29.1903 27.1643 29.1393 27.0824L26.869 23.4409H22.6497C22.4992 23.4409 22.3548 23.3811 22.2484 23.2747C22.142 23.1682 22.0822 23.0239 22.0822 22.8734C22.0822 22.7228 22.142 22.5785 22.2484 22.472C22.3548 22.3656 22.4992 22.3058 22.6497 22.3058H27.1812C27.2776 22.3057 27.3724 22.3303 27.4567 22.377C27.541 22.4238 27.612 22.4913 27.663 22.5731L30.099 26.4819C30.1524 26.5676 30.182 26.6659 30.1848 26.7667C30.1875 26.8676 30.1633 26.9673 30.1147 27.0557C30.0661 27.1441 29.9948 27.218 29.9081 27.2697C29.8215 27.3213 29.7226 27.349 29.6217 27.3498Z" fill="white"/>
<path d="M20.8751 25.2162C20.4117 25.2161 19.9588 25.0786 19.5736 24.8211C19.1883 24.5636 18.8881 24.1976 18.7109 23.7695C18.5337 23.3414 18.4873 22.8703 18.5778 22.4159C18.6683 21.9614 18.8915 21.544 19.2191 21.2164C19.5468 20.8888 19.9643 20.6657 20.4188 20.5754C20.8732 20.485 21.3443 20.5314 21.7724 20.7088C22.2004 20.8861 22.5663 21.1864 22.8237 21.5717C23.0812 21.957 23.2186 22.41 23.2186 22.8733C23.218 23.4946 22.9708 24.0903 22.5315 24.5295C22.0921 24.9688 21.4964 25.2158 20.8751 25.2162ZM20.8751 21.6655C20.6362 21.6656 20.4028 21.7366 20.2042 21.8694C20.0057 22.0021 19.851 22.1908 19.7596 22.4115C19.6683 22.6322 19.6445 22.875 19.6911 23.1093C19.7378 23.3435 19.8529 23.5587 20.0218 23.7275C20.1907 23.8964 20.4059 24.0114 20.6402 24.0579C20.8745 24.1045 21.1173 24.0805 21.338 23.9891C21.5586 23.8977 21.7472 23.7429 21.8799 23.5443C22.0126 23.3457 22.0834 23.1122 22.0834 22.8733C22.0831 22.553 21.9557 22.2459 21.7291 22.0194C21.5026 21.793 21.1954 21.6657 20.8751 21.6655Z" fill="white"/>
<path d="M51.3501 49.6943H46.8186C46.7222 49.6943 46.6274 49.6698 46.5431 49.623C46.4588 49.5763 46.3878 49.5088 46.3368 49.427L43.8985 45.5181C43.8189 45.3902 43.7933 45.2358 43.8275 45.0891C43.8616 44.9423 43.9527 44.8151 44.0807 44.7355C44.2086 44.6558 44.363 44.6303 44.5097 44.6645C44.6565 44.6986 44.7837 44.7897 44.8633 44.9176L47.1336 48.5592H51.3524C51.5029 48.5592 51.6472 48.619 51.7537 48.7254C51.8601 48.8318 51.9199 48.9762 51.9199 49.1267C51.9199 49.2772 51.8601 49.4216 51.7537 49.528C51.6472 49.6345 51.5029 49.6943 51.3524 49.6943H51.3501Z" fill="white"/>
<path d="M53.1249 51.4696C52.6615 51.4696 52.2085 51.3322 51.8232 51.0748C51.4379 50.8174 51.1376 50.4514 50.9603 50.0233C50.783 49.5952 50.7366 49.1241 50.827 48.6697C50.9174 48.2152 51.1405 47.7977 51.4682 47.47C51.7958 47.1424 52.2133 46.9192 52.6678 46.8288C53.1223 46.7384 53.5934 46.7848 54.0215 46.9622C54.4496 47.1395 54.8155 47.4398 55.0729 47.8251C55.3304 48.2104 55.4678 48.6633 55.4678 49.1267C55.4671 49.7479 55.22 50.3434 54.7807 50.7826C54.3415 51.2218 53.746 51.4689 53.1249 51.4696ZM53.1249 47.9189C52.886 47.9189 52.6525 47.9898 52.4539 48.1225C52.2552 48.2552 52.1004 48.4438 52.009 48.6645C51.9176 48.8852 51.8937 49.1281 51.9403 49.3624C51.9869 49.5966 52.1019 49.8119 52.2708 49.9808C52.4398 50.1497 52.655 50.2647 52.8893 50.3113C53.1235 50.3579 53.3664 50.334 53.5871 50.2426C53.8078 50.1512 53.9964 49.9964 54.1291 49.7977C54.2618 49.5991 54.3327 49.3656 54.3327 49.1267C54.3322 48.8065 54.2048 48.4996 53.9784 48.2732C53.752 48.0468 53.4451 47.9194 53.1249 47.9189Z" fill="white"/>
<path d="M44.3785 27.3498C44.2773 27.3497 44.1779 27.3226 44.0907 27.2712C44.0035 27.2198 43.9316 27.146 43.8825 27.0575C43.8334 26.9689 43.8089 26.8689 43.8115 26.7677C43.814 26.6665 43.8436 26.5678 43.8972 26.4819L46.3332 22.5731C46.3842 22.4913 46.4552 22.4238 46.5395 22.377C46.6238 22.3303 46.7186 22.3057 46.8151 22.3058H51.3488C51.4993 22.3058 51.6437 22.3656 51.7501 22.472C51.8566 22.5785 51.9164 22.7228 51.9164 22.8734C51.9164 23.0239 51.8566 23.1682 51.7501 23.2747C51.6437 23.3811 51.4993 23.4409 51.3488 23.4409H47.1318L44.8615 27.0824C44.8104 27.1644 44.7392 27.232 44.6547 27.2788C44.5702 27.3256 44.4751 27.35 44.3785 27.3498Z" fill="white"/>
<path d="M53.1249 25.2162C52.6615 25.2162 52.2085 25.0788 51.8232 24.8214C51.4379 24.5639 51.1376 24.198 50.9603 23.7699C50.783 23.3418 50.7366 22.8707 50.827 22.4162C50.9174 21.9618 51.1405 21.5443 51.4682 21.2166C51.7958 20.889 52.2133 20.6658 52.6678 20.5754C53.1223 20.485 53.5934 20.5314 54.0215 20.7087C54.4496 20.8861 54.8155 21.1864 55.0729 21.5717C55.3304 21.957 55.4678 22.4099 55.4678 22.8733C55.4669 23.4944 55.2198 24.0898 54.7806 24.529C54.3414 24.9682 53.746 25.2153 53.1249 25.2162ZM53.1249 21.6655C52.886 21.6655 52.6525 21.7364 52.4539 21.8691C52.2552 22.0018 52.1004 22.1904 52.009 22.4111C51.9176 22.6318 51.8937 22.8747 51.9403 23.1089C51.9869 23.3432 52.1019 23.5584 52.2708 23.7273C52.4398 23.8963 52.655 24.0113 52.8893 24.0579C53.1235 24.1045 53.3664 24.0806 53.5871 23.9892C53.8078 23.8977 53.9964 23.7429 54.1291 23.5443C54.2618 23.3457 54.3327 23.1122 54.3327 22.8733C54.3324 22.5531 54.205 22.2461 53.9786 22.0196C53.7521 21.7932 53.4451 21.6658 53.1249 21.6655Z" fill="white"/>
<defs>
<linearGradient id="paint0_linear_1_94" x1="37" y1="0" x2="37" y2="74" gradientUnits="userSpaceOnUse">
<stop stop-color="#84D8ED"/>
<stop offset="1" stop-color="#4292BB"/>
</linearGradient>
</defs>
</svg>
