<svg width="74" height="74" viewBox="0 0 74 74" fill="none" xmlns="http://www.w3.org/2000/svg">
<rect width="74" height="74" rx="37" fill="url(#paint0_linear_1_246)"/>
<g clip-path="url(#clip0_1_246)">
<path d="M55.243 52.6584H22.538L26.6652 48.0483C27.0276 48.2412 27.4405 48.3509 27.8785 48.3509C28.8869 48.3509 29.7623 47.7712 30.1933 46.9267L34.4102 47.9957C34.5218 49.3322 35.6403 50.3858 37.0001 50.3858C38.4335 50.3858 39.5997 49.215 39.5997 47.7759C39.5997 46.9823 39.2447 46.2708 38.6861 45.7918L42.125 37.5405L44.574 43.8099C43.9887 44.289 43.6139 45.018 43.6139 45.8334C43.6139 47.2725 44.7802 48.4433 46.2137 48.4433C47.6471 48.4433 48.8133 47.2725 48.8133 45.8334C48.8133 45.5394 48.7639 45.2568 48.6742 44.9929L51.6781 41.9771C51.9737 41.6803 51.9737 41.1991 51.6781 40.9023C51.3825 40.6056 50.9032 40.6056 50.6076 40.9023L47.7737 43.7472C47.3389 43.4185 46.7984 43.2235 46.2134 43.2235C46.1331 43.2235 46.0538 43.2276 45.9753 43.2349L42.9641 35.5263L45.9891 28.2684C46.0631 28.2748 46.1377 28.2787 46.2134 28.2787C47.4171 28.2787 48.432 27.4531 48.7265 26.3363H53.4921C53.9101 26.3363 54.249 25.996 54.249 25.5763C54.249 25.1567 53.9101 24.8164 53.4921 24.8164H48.67C48.3172 23.7947 47.3497 23.0589 46.2134 23.0589C44.78 23.0589 43.6137 24.2297 43.6137 25.6688C43.6137 26.4892 43.9931 27.222 44.5846 27.7008L42.1702 33.4937L38.6434 24.4648C39.1733 23.9867 39.5073 23.2937 39.5073 22.5238C39.5073 21.0846 38.3411 19.9138 36.9076 19.9138C35.4741 19.9138 34.3081 21.0846 34.3081 22.5238C34.3081 23.1464 34.5267 23.7186 34.8905 24.1677L28.6502 33.6598C28.3797 33.5638 28.089 33.511 27.7863 33.511C27.4757 33.511 27.1777 33.5662 26.9014 33.6669L21.5409 26.5859V18.8242C21.5409 18.4046 21.202 18.0643 20.7839 18.0643C20.3659 18.0643 20.0269 18.4046 20.0269 18.8242V26.2966H18.757C18.3389 26.2965 18 26.6368 18 27.0565C18 27.4761 18.3389 27.8164 18.757 27.8164H20.027V35.4538H18.757C18.3389 35.4538 18 35.7941 18 36.2137C18 36.6334 18.3389 36.9737 18.757 36.9737H20.027V44.7962H18.757C18.3389 44.7962 18 45.1364 18 45.5561C18 45.9757 18.3389 46.316 18.757 46.316H20.027V53.4184C20.027 53.838 20.3659 54.1783 20.7839 54.1783H27.3058V55.1757C27.3058 55.5954 27.6447 55.9357 28.0627 55.9357C28.4808 55.9357 28.8197 55.5954 28.8197 55.1757V54.1783H36.4273V55.1757C36.4273 55.5954 36.7661 55.9357 37.1842 55.9357C37.6023 55.9357 37.9412 55.5954 37.9412 55.1757V54.1783H45.733V55.1757C45.733 55.5954 46.0718 55.9357 46.4899 55.9357C46.908 55.9357 47.2469 55.5954 47.2469 55.1757V54.1783H55.2428C55.6609 54.1783 55.9998 53.838 55.9998 53.4184C55.9998 52.9987 55.6611 52.6584 55.243 52.6584ZM46.2137 44.7435C46.8123 44.7435 47.2995 45.2325 47.2995 45.8336C47.2995 46.4345 46.8124 46.9236 46.2137 46.9236C45.615 46.9236 45.1279 46.4345 45.1279 45.8336C45.1279 45.2325 45.615 44.7435 46.2137 44.7435ZM46.2137 24.579C46.8124 24.579 47.2994 25.068 47.2994 25.669C47.2994 26.2701 46.8123 26.7591 46.2137 26.7591C45.6149 26.7591 45.1278 26.2701 45.1278 25.669C45.1278 25.068 45.6149 24.579 46.2137 24.579ZM27.8785 46.831C27.2798 46.831 26.7928 46.342 26.7928 45.7409C26.7928 45.1399 27.2799 44.6509 27.8785 44.6509C28.4772 44.6509 28.9643 45.1399 28.9643 45.7409C28.9642 46.3421 28.4772 46.831 27.8785 46.831ZM37 48.866C36.4013 48.866 35.9143 48.3769 35.9143 47.7759C35.9143 47.1749 36.4014 46.6859 37 46.6859C37.5986 46.6859 38.0857 47.1749 38.0857 47.7759C38.0857 48.3769 37.5987 48.866 37 48.866ZM36.9079 21.4341C37.5066 21.4341 37.9937 21.9231 37.9937 22.5241C37.9937 23.1252 37.5066 23.6142 36.9079 23.6142C36.3092 23.6142 35.8221 23.1252 35.8221 22.5241C35.8221 21.9231 36.3092 21.4341 36.9079 21.4341ZM27.7863 35.0313C28.3851 35.0313 28.8721 35.5202 28.8721 36.1213C28.8721 36.7223 28.385 37.2114 27.7863 37.2114C27.1875 37.2114 26.7005 36.7223 26.7005 36.1213C26.7006 35.5203 27.1877 35.0313 27.7863 35.0313ZM21.541 29.0981L25.6905 34.5794C25.3742 35.0117 25.1867 35.5449 25.1867 36.1212C25.1867 37.5604 26.3529 38.7311 27.7863 38.7311C29.2198 38.7311 30.3861 37.5604 30.3861 36.1212C30.3861 35.5376 30.1943 34.9983 29.8706 34.5631L36.145 25.0192C36.3864 25.0937 36.6425 25.134 36.9078 25.134C37.0303 25.134 37.1507 25.1248 37.2687 25.1083L41.331 35.5079L37.2983 45.1838C37.2003 45.1725 37.1009 45.166 36.9999 45.166C36.0243 45.166 35.1729 45.7086 34.7283 46.5088L30.4585 45.4263C30.3032 44.1352 29.2057 43.131 27.8784 43.131C26.4449 43.131 25.2787 44.3018 25.2787 45.7409C25.2787 46.1875 25.3912 46.6083 25.5891 46.9763L21.541 51.4983V29.0981Z" fill="white"/>
<path d="M54.2579 38.2201C53.9622 37.9233 53.4829 37.9233 53.1873 38.2201L52.5884 38.8214C52.2928 39.1182 52.2928 39.5993 52.5884 39.8962C52.7362 40.0445 52.9299 40.1187 53.1236 40.1187C53.3174 40.1187 53.5111 40.0445 53.6589 39.8962L54.2579 39.2949C54.5534 38.998 54.5534 38.5169 54.2579 38.2201Z" fill="white"/>
</g>
<defs>
<linearGradient id="paint0_linear_1_246" x1="37" y1="0" x2="37" y2="74" gradientUnits="userSpaceOnUse">
<stop stop-color="#BC7FD9"/>
<stop offset="1" stop-color="#923283"/>
</linearGradient>
<clipPath id="clip0_1_246">
<rect width="38" height="38" fill="white" transform="translate(18 18)"/>
</clipPath>
</defs>
</svg>
