<svg width="74" height="74" viewBox="0 0 74 74" fill="none" xmlns="http://www.w3.org/2000/svg">
<rect width="74" height="74" rx="37" fill="url(#paint0_linear_1749_2744)"/>
<g clip-path="url(#clip0_1749_2744)">
<path d="M21.0645 51.6968H37V50.4708H21.0645C20.049 50.4708 19.2258 49.6475 19.2258 48.6321V21.6643C19.2258 20.6486 20.049 19.8256 21.0645 19.8256H48.0322C49.0481 19.8256 49.8709 20.6486 49.8709 21.6643V35.761H51.097V21.6643C51.095 19.9726 49.7241 18.6019 48.0322 18.5999H21.0645C19.3731 18.6019 18.0022 19.9726 18 21.6643V48.6321C18.0022 50.3237 19.3731 51.6945 21.0645 51.6968Z" fill="black"/>
<path d="M20.4518 21.0518H21.6774V22.2774H20.4518V21.0518Z" fill="black"/>
<path d="M22.9032 21.0518H24.1292V22.2774H22.9032V21.0518Z" fill="black"/>
<path d="M25.3548 21.0518H26.5807V22.2774H25.3548V21.0518Z" fill="black"/>
<path d="M20.4518 23.5029H48.6451V24.729H20.4518V23.5029Z" fill="black"/>
<path d="M26.7602 26.1343L25.2034 27.6911C23.8875 26.8199 22.1253 27.0872 21.1266 28.3094C20.128 29.5315 20.2176 31.3117 21.3335 32.4274C22.4493 33.5436 24.2296 33.6332 25.4518 32.6345C26.6739 31.6359 26.9413 29.8734 26.07 28.5578L27.6266 27.001L26.7602 26.1343ZM23.5159 32.0836C22.5006 32.0836 21.6773 31.2605 21.6773 30.2451C21.6773 29.2295 22.5006 28.4065 23.5159 28.4065C23.7893 28.4074 24.0583 28.4701 24.3036 28.5901L23.0828 29.8111L23.9492 30.6778L25.171 29.4576C25.291 29.7028 25.3538 29.9718 25.3547 30.2451C25.3547 31.2605 24.5318 32.0836 23.5159 32.0836Z" fill="black"/>
<path d="M28.4193 28.4065H38.8384V29.6321H28.4193V28.4065Z" fill="black"/>
<path d="M28.4193 30.8579H32.7095V32.0835H28.4193V30.8579Z" fill="black"/>
<path d="M33.9356 30.8579H42.516V32.0835H33.9356V30.8579Z" fill="black"/>
<path d="M40.0645 28.4065H46.1935V29.6321H40.0645V28.4065Z" fill="black"/>
<path d="M26.7602 33.489L25.2034 35.0458C23.8875 34.1746 22.1253 34.4419 21.1266 35.6642C20.128 36.8864 20.2176 38.6664 21.3335 39.7825C22.4493 40.8984 24.2296 40.9879 25.4518 39.9892C26.6739 38.9905 26.9413 37.2286 26.07 35.9126L27.6266 34.3558L26.7602 33.489ZM23.5159 39.4385C22.5006 39.4385 21.6773 38.6152 21.6773 37.5998C21.6773 36.5842 22.5006 35.7609 23.5159 35.7609C23.7893 35.762 24.0583 35.8248 24.3036 35.9448L23.0828 37.1661L23.9492 38.0325L25.171 36.8122C25.291 37.0575 25.3538 37.3265 25.3547 37.5998C25.3547 38.6152 24.5318 39.4385 23.5159 39.4385Z" fill="black"/>
<path d="M28.4193 35.761H38.8384V36.9869H28.4193V35.761Z" fill="black"/>
<path d="M28.4193 38.2129H32.7095V39.4386H28.4193V38.2129Z" fill="black"/>
<path d="M33.9356 38.2129H38.8386V39.4386H33.9356V38.2129Z" fill="black"/>
<path d="M40.0645 35.761H42.516V36.9869H40.0645V35.761Z" fill="black"/>
<path d="M26.7602 40.844L25.2034 42.4008C23.8875 41.5296 22.1253 41.7969 21.1266 43.0191C20.128 44.2414 20.2176 46.0214 21.3335 47.1374C22.4493 48.2535 24.2296 48.3428 25.4518 47.3442C26.6739 46.3455 26.9413 44.5835 26.07 43.2674L27.6266 41.7107L26.7602 40.844ZM23.5159 46.7935C22.5006 46.7935 21.6773 45.9702 21.6773 44.9548C21.6773 43.9392 22.5006 43.1161 23.5159 43.1161C23.7893 43.117 24.0583 43.1797 24.3036 43.2998L23.0828 44.5211L23.9492 45.3875L25.171 44.1672C25.291 44.4125 25.3538 44.6816 25.3547 44.9548C25.3547 45.9702 24.5318 46.7935 23.5159 46.7935Z" fill="black"/>
<path d="M28.4193 43.116H36.3869V44.342H28.4193V43.116Z" fill="black"/>
<path d="M28.4193 45.5676H32.7095V46.7934H28.4193V45.5676Z" fill="black"/>
<path d="M33.9356 45.5676H36.3871V46.7934H33.9356V45.5676Z" fill="black"/>
<path d="M46.8065 55.3741C51.8842 55.3741 55.9999 51.2577 55.9999 46.1805C55.9999 41.1028 51.8842 36.9868 46.8065 36.9868C41.7289 36.9868 37.6129 41.1028 37.6129 46.1805C37.6188 51.2554 41.7313 55.368 46.8065 55.3741ZM46.8065 38.2127C51.2067 38.2127 54.7743 41.78 54.7743 46.1805C54.7743 50.581 51.2067 54.1481 46.8065 54.1481C42.4059 54.1481 38.8385 50.581 38.8385 46.1805C38.8437 41.7821 42.4079 38.2176 46.8065 38.2127Z" fill="black"/>
<path d="M43.0679 46.5193L41.9708 47.0671L43.1967 49.5187C43.2845 49.6951 43.4523 49.8184 43.6469 49.8499C43.6786 49.8549 43.7102 49.8575 43.742 49.8579C43.9044 49.8579 44.0603 49.7932 44.1756 49.6783L51.5301 42.3235L50.6636 41.4568L43.9098 48.2103L43.0679 46.5193Z" fill="black"/>
<g clip-path="url(#clip1_1749_2744)">
<path d="M21.0645 51.6968H37V50.4708H21.0645C20.049 50.4708 19.2258 49.6475 19.2258 48.6321V21.6643C19.2258 20.6486 20.049 19.8256 21.0645 19.8256H48.0322C49.0481 19.8256 49.8709 20.6486 49.8709 21.6643V35.761H51.097V21.6643C51.095 19.9726 49.7241 18.6019 48.0322 18.5999H21.0645C19.3731 18.6019 18.0022 19.9726 18 21.6643V48.6321C18.0022 50.3237 19.3731 51.6945 21.0645 51.6968Z" fill="white"/>
<path d="M20.4518 21.0518H21.6774V22.2774H20.4518V21.0518Z" fill="white"/>
<path d="M22.9032 21.0518H24.1292V22.2774H22.9032V21.0518Z" fill="white"/>
<path d="M25.3548 21.0518H26.5807V22.2774H25.3548V21.0518Z" fill="white"/>
<path d="M20.4518 23.5029H48.6451V24.729H20.4518V23.5029Z" fill="white"/>
<path d="M26.7602 26.1343L25.2034 27.6911C23.8875 26.8199 22.1253 27.0872 21.1266 28.3094C20.128 29.5315 20.2176 31.3117 21.3335 32.4274C22.4493 33.5436 24.2296 33.6332 25.4518 32.6345C26.6739 31.6359 26.9413 29.8734 26.07 28.5578L27.6266 27.001L26.7602 26.1343ZM23.5159 32.0836C22.5006 32.0836 21.6773 31.2605 21.6773 30.2451C21.6773 29.2295 22.5006 28.4065 23.5159 28.4065C23.7893 28.4074 24.0583 28.4701 24.3036 28.5901L23.0828 29.8111L23.9492 30.6778L25.171 29.4576C25.291 29.7028 25.3538 29.9718 25.3547 30.2451C25.3547 31.2605 24.5318 32.0836 23.5159 32.0836Z" fill="white"/>
<path d="M28.4193 28.4065H38.8384V29.6321H28.4193V28.4065Z" fill="white"/>
<path d="M28.4193 30.8579H32.7095V32.0835H28.4193V30.8579Z" fill="white"/>
<path d="M33.9356 30.8579H42.516V32.0835H33.9356V30.8579Z" fill="white"/>
<path d="M40.0645 28.4065H46.1935V29.6321H40.0645V28.4065Z" fill="white"/>
<path d="M26.7602 33.489L25.2034 35.0458C23.8875 34.1746 22.1253 34.4419 21.1266 35.6642C20.128 36.8864 20.2176 38.6664 21.3335 39.7825C22.4493 40.8984 24.2296 40.9879 25.4518 39.9892C26.6739 38.9905 26.9413 37.2286 26.07 35.9126L27.6266 34.3558L26.7602 33.489ZM23.5159 39.4385C22.5006 39.4385 21.6773 38.6152 21.6773 37.5998C21.6773 36.5842 22.5006 35.7609 23.5159 35.7609C23.7893 35.762 24.0583 35.8248 24.3036 35.9448L23.0828 37.1661L23.9492 38.0325L25.171 36.8122C25.291 37.0575 25.3538 37.3265 25.3547 37.5998C25.3547 38.6152 24.5318 39.4385 23.5159 39.4385Z" fill="white"/>
<path d="M28.4193 35.761H38.8384V36.9869H28.4193V35.761Z" fill="white"/>
<path d="M28.4193 38.2129H32.7095V39.4386H28.4193V38.2129Z" fill="white"/>
<path d="M33.9356 38.2129H38.8386V39.4386H33.9356V38.2129Z" fill="white"/>
<path d="M40.0645 35.761H42.516V36.9869H40.0645V35.761Z" fill="white"/>
<path d="M26.7602 40.844L25.2034 42.4008C23.8875 41.5296 22.1253 41.7969 21.1266 43.0191C20.128 44.2414 20.2176 46.0214 21.3335 47.1374C22.4493 48.2535 24.2296 48.3428 25.4518 47.3442C26.6739 46.3455 26.9413 44.5835 26.07 43.2674L27.6266 41.7107L26.7602 40.844ZM23.5159 46.7935C22.5006 46.7935 21.6773 45.9702 21.6773 44.9548C21.6773 43.9392 22.5006 43.1161 23.5159 43.1161C23.7893 43.117 24.0583 43.1797 24.3036 43.2998L23.0828 44.5211L23.9492 45.3875L25.171 44.1672C25.291 44.4125 25.3538 44.6816 25.3547 44.9548C25.3547 45.9702 24.5318 46.7935 23.5159 46.7935Z" fill="white"/>
<path d="M28.4193 43.116H36.3869V44.342H28.4193V43.116Z" fill="white"/>
<path d="M28.4193 45.5676H32.7095V46.7934H28.4193V45.5676Z" fill="white"/>
<path d="M33.9356 45.5676H36.3871V46.7934H33.9356V45.5676Z" fill="white"/>
<path d="M46.8065 55.3741C51.8842 55.3741 55.9999 51.2577 55.9999 46.1805C55.9999 41.1028 51.8842 36.9868 46.8065 36.9868C41.7289 36.9868 37.6129 41.1028 37.6129 46.1805C37.6188 51.2554 41.7313 55.368 46.8065 55.3741ZM46.8065 38.2127C51.2067 38.2127 54.7743 41.78 54.7743 46.1805C54.7743 50.581 51.2067 54.1481 46.8065 54.1481C42.4059 54.1481 38.8385 50.581 38.8385 46.1805C38.8437 41.7821 42.4079 38.2176 46.8065 38.2127Z" fill="white"/>
<path d="M43.0679 46.5193L41.9708 47.0671L43.1967 49.5187C43.2845 49.6951 43.4523 49.8184 43.6469 49.8499C43.6786 49.8549 43.7102 49.8575 43.742 49.8579C43.9044 49.8579 44.0603 49.7932 44.1756 49.6783L51.5301 42.3235L50.6636 41.4568L43.9098 48.2103L43.0679 46.5193Z" fill="white"/>
</g>
</g>
<defs>
<linearGradient id="paint0_linear_1749_2744" x1="37" y1="0" x2="37" y2="74" gradientUnits="userSpaceOnUse">
<stop stop-color="#8A7FD9"/>
<stop offset="1" stop-color="#402F8F"/>
</linearGradient>
<clipPath id="clip0_1749_2744">
<rect width="38" height="38" fill="white" transform="translate(18 18)"/>
</clipPath>
<clipPath id="clip1_1749_2744">
<rect width="38" height="38" fill="white" transform="translate(18 18)"/>
</clipPath>
</defs>
</svg>
