<svg width="74" height="74" viewBox="0 0 74 74" fill="none" xmlns="http://www.w3.org/2000/svg">
<rect width="74" height="74" rx="37" fill="url(#paint0_linear_1_214)"/>
<g clip-path="url(#clip0_1_214)">
<path d="M39.4883 24.7262C37.6702 22.8495 35.253 21.8158 32.6818 21.8158C30.1106 21.8158 27.6933 22.8494 25.8752 24.7262C22.1222 28.6003 22.1222 34.9041 25.8752 38.7784C27.6933 40.6551 30.1106 41.6887 32.6818 41.6887C35.253 41.6887 37.6702 40.6551 39.4883 38.7784C41.3064 36.9016 42.3077 34.4064 42.3077 31.7523C42.3077 29.0982 41.3064 26.603 39.4883 24.7262ZM26.6504 25.5264C28.2614 23.8634 30.4034 22.9475 32.6817 22.9475C34.96 22.9475 37.102 23.8634 38.713 25.5264C39.9845 26.8388 40.8047 28.4929 41.094 30.288L38.1061 33.3041C37.8231 33.1393 37.4968 33.0448 37.1494 33.0448C36.473 33.0448 35.876 33.4016 35.5253 33.9422L31.1336 32.5198C31.1338 32.5067 31.1346 32.4936 31.1346 32.4804C31.1346 31.3685 30.2583 30.4639 29.181 30.4639C28.1039 30.4639 27.2275 31.3685 27.2275 32.4804C27.2275 32.8438 27.3216 33.1849 27.4854 33.4798L25.1811 35.9454C23.4327 32.6083 23.922 28.3428 26.6504 25.5264ZM38.0067 35.0612C38.0067 35.5491 37.6221 35.9461 37.1495 35.9461C36.6768 35.9461 36.2922 35.5491 36.2922 35.0612C36.2922 34.5734 36.6768 34.1764 37.1495 34.1764C37.6221 34.1764 38.0067 34.5733 38.0067 35.0612ZM30.0383 32.4802C30.0383 32.9681 29.6537 33.3651 29.1811 33.3651C28.7084 33.3651 28.3238 32.9681 28.3238 32.4802C28.3238 31.9924 28.7084 31.5954 29.1811 31.5954C29.6537 31.5954 30.0383 31.9924 30.0383 32.4802ZM38.713 37.9782C37.102 39.6412 34.9601 40.5571 32.6818 40.5571C30.4035 40.5571 28.2615 39.6412 26.6505 37.9782C26.3305 37.6479 26.0416 37.2975 25.7832 36.9311L28.2743 34.2655C28.5455 34.4129 28.854 34.4968 29.1811 34.4968C29.8575 34.4968 30.4545 34.14 30.8052 33.5993L35.1969 35.0218C35.1967 35.0349 35.196 35.048 35.196 35.0612C35.196 36.1731 36.0723 37.0777 37.1495 37.0777C38.2266 37.0777 39.103 36.1731 39.103 35.0612C39.103 34.7186 39.0195 34.3958 38.8729 34.1129L41.2114 31.7524C41.2113 34.1042 40.324 36.3152 38.713 37.9782Z" fill="white"/>
<path d="M27.8275 25.9799L28.5467 26.834C30.2466 25.3088 32.6299 24.8385 34.767 25.6069L35.1276 24.5382C32.6207 23.6368 29.8234 24.1892 27.8275 25.9799Z" fill="white"/>
<path d="M36.5347 25.224L35.9644 26.1905C36.2545 26.3729 36.533 26.582 36.792 26.812L37.5069 25.954C37.2028 25.6841 36.8756 25.4384 36.5347 25.224Z" fill="white"/>
<path d="M33.9931 38.1198C32.7597 38.3882 31.4921 38.2753 30.327 37.7935L29.9193 38.8439C30.8028 39.2093 31.7361 39.3939 32.6763 39.3939C33.191 39.3939 33.7077 39.3385 34.2193 39.2272L33.9931 38.1198Z" fill="white"/>
<path d="M46.4135 40.8433L45.6175 41.6649L43.6429 39.4861C45.98 35.9595 46.5427 31.5477 45.3302 27.5949L46.8969 26.0133C47.1725 26.167 47.4876 26.2544 47.8223 26.2544C48.8994 26.2544 49.7758 25.3497 49.7758 24.2378C49.7758 23.9085 49.6985 23.5977 49.5623 23.3228L52.9256 19.9279V21.6826H54.0218V18.0174H50.4712V19.149H52.1291L48.8102 22.4992C48.5202 22.3229 48.1826 22.2212 47.8224 22.2212C46.7452 22.2212 45.8688 23.1259 45.8688 24.2377C45.8688 24.5935 45.9589 24.9279 46.1163 25.2184L44.9156 26.4304C44.2692 24.8415 43.3212 23.3533 42.0697 22.0615C36.8931 16.718 28.4705 16.7181 23.2939 22.0615C18.6827 26.8215 18.1792 34.2405 21.7832 39.5812L20.8602 40.5688C20.589 40.4214 20.2806 40.3376 19.9534 40.3376C18.8763 40.3375 18 41.2421 18 42.354C18 43.4659 18.8763 44.3705 19.9535 44.3705C21.0307 44.3705 21.907 43.4659 21.907 42.354C21.907 41.9905 21.8129 41.6495 21.6491 41.3546L22.4555 40.4917C22.7182 40.8189 22.9971 41.1366 23.2939 41.4429C25.8822 44.1147 29.282 45.4505 32.6818 45.4505C35.2916 45.4505 37.9012 44.6623 40.1439 43.0879L42.1232 45.2719L41.3002 46.1215L50.8865 55.9826L56 50.7044L46.4135 40.8433ZM47.8224 23.3529C48.295 23.3529 48.6796 23.75 48.6796 24.2378C48.6796 24.7257 48.295 25.1227 47.8224 25.1227C47.3497 25.1227 46.9651 24.7257 46.9651 24.2378C46.9651 23.75 47.3497 23.3529 47.8224 23.3529ZM19.9535 43.2388C19.4809 43.2388 19.0963 42.8418 19.0963 42.3539C19.0963 41.8661 19.4809 41.4691 19.9535 41.4691C20.4262 41.4691 20.8107 41.8661 20.8107 42.3539C20.8107 42.8419 20.4261 43.2388 19.9535 43.2388ZM24.0691 40.6428C19.3201 35.7406 19.3201 27.7641 24.0691 22.8617C26.4436 20.4106 29.5626 19.1851 32.6817 19.1851C35.8008 19.1851 38.92 20.4107 41.2944 22.8617C46.0435 27.7639 46.0435 35.7405 41.2944 40.6428C36.5456 45.5449 28.818 45.5449 24.0691 40.6428ZM41.0299 42.409C41.3888 42.1091 41.736 41.7873 42.0697 41.4429C42.3921 41.1101 42.6944 40.7643 42.9765 40.4072L44.842 42.4654L42.8989 44.4712L41.0299 42.409ZM50.8853 54.3836L42.852 46.1201L46.4149 42.4422L54.4482 50.7057L50.8853 54.3836Z" fill="white"/>
<path d="M46.4142 44.085L44.8455 45.7042L45.6208 46.5045L46.4142 45.6854L49.4398 48.8086L50.215 48.0084L46.4142 44.085Z" fill="white"/>
<path d="M51.1568 48.9747L50.3817 49.7786L51.1904 50.6173L51.9655 49.8134L51.1568 48.9747Z" fill="white"/>
<path d="M25.0359 46.0302H23.9396V47.2631H25.0359V46.0302Z" fill="white"/>
<path d="M25.0359 52.9407H23.9396V54.1736H25.0359V52.9407Z" fill="white"/>
<path d="M34.0648 48.4081H32.9685V49.641H34.0648V48.4081Z" fill="white"/>
<path d="M49.7758 38.2302H48.6795V39.4632H49.7758V38.2302Z" fill="white"/>
<path d="M51.0196 28.4107H49.9233V29.6436H51.0196V28.4107Z" fill="white"/>
<path d="M54.6527 33.6102H53.5564V34.8431H54.6527V33.6102Z" fill="white"/>
</g>
<defs>
<linearGradient id="paint0_linear_1_214" x1="37" y1="0" x2="37" y2="74" gradientUnits="userSpaceOnUse">
<stop stop-color="#8684ED"/>
<stop offset="1" stop-color="#4247BB"/>
</linearGradient>
<clipPath id="clip0_1_214">
<rect width="38" height="38" fill="white" transform="translate(18 18)"/>
</clipPath>
</defs>
</svg>
