<svg width="74" height="74" viewBox="0 0 74 74" fill="none" xmlns="http://www.w3.org/2000/svg">
<rect width="74" height="74" rx="37" fill="url(#paint0_linear_1749_2694)"/>
<g clip-path="url(#clip0_1749_2694)">
<path d="M41.6859 51.7217C42.6547 51.7217 43.4431 50.9333 43.4431 49.9644C43.4431 48.9956 42.6547 48.2072 41.6859 48.2072C40.9233 48.2072 40.279 48.6987 40.0365 49.3787H37.5857V45.8643H40.0365C40.279 46.5443 40.9233 47.0358 41.6859 47.0358C42.6547 47.0358 43.4431 46.2473 43.4431 45.2785C43.4431 44.3097 42.6547 43.5213 41.6859 43.5213C40.9233 43.5213 40.279 44.0128 40.0365 44.6928H37.5857V41.1784H40.0365C40.279 41.8584 40.9233 42.3498 41.6859 42.3498C42.6547 42.3498 43.4431 41.5614 43.4431 40.5926C43.4431 39.6238 42.6547 38.8354 41.6859 38.8354C40.9233 38.8354 40.279 39.3268 40.0365 40.0069H37.5857V38.8354H36.4143V36.3847C37.0943 36.1422 37.5857 35.4979 37.5857 34.7352C37.5857 33.7664 36.7973 32.978 35.8285 32.978C34.8597 32.978 34.0713 33.7664 34.0713 34.7352C34.0713 35.4979 34.5627 36.1422 35.2428 36.3847V38.8354H31.7283V36.3847C32.4084 36.1422 32.8998 35.4979 32.8998 34.7352C32.8998 33.7664 32.1114 32.978 31.1426 32.978C30.1738 32.978 29.3854 33.7664 29.3854 34.7352C29.3854 35.4979 29.8768 36.1422 30.5569 36.3847V38.8354H27.0424V36.3847C27.7225 36.1422 28.2139 35.4979 28.2139 34.7352C28.2139 33.7664 27.4255 32.978 26.4567 32.978C25.4879 32.978 24.6995 33.7664 24.6995 34.7352C24.6995 35.4979 25.1909 36.1422 25.871 36.3847V38.8354H24.6995V40.0069H22.2488C22.0063 39.3268 21.3619 38.8354 20.5993 38.8354C19.6305 38.8354 18.8421 39.6238 18.8421 40.5926C18.8421 41.5614 19.6305 42.3498 20.5993 42.3498C21.3619 42.3498 22.0063 41.8584 22.2488 41.1784H24.6995V44.6928H22.2488C22.0063 44.0128 21.3619 43.5213 20.5993 43.5213C19.6305 43.5213 18.8421 44.3097 18.8421 45.2785C18.8421 46.2473 19.6305 47.0358 20.5993 47.0358C21.3619 47.0358 22.0063 46.5443 22.2488 45.8643H24.6995V49.3787H22.2488C22.0063 48.6987 21.3619 48.2072 20.5993 48.2072C19.6305 48.2072 18.8421 48.9956 18.8421 49.9644C18.8421 50.9333 19.6305 51.7217 20.5993 51.7217C21.3619 51.7217 22.0063 51.2302 22.2488 50.5502H24.6995V51.7217H25.871V54.1724C25.1909 54.4149 24.6995 55.0592 24.6995 55.8218C24.6995 56.7906 25.4879 57.579 26.4567 57.579C27.4255 57.579 28.2139 56.7906 28.2139 55.8218C28.2139 55.0592 27.7225 54.4149 27.0424 54.1724V51.7217H30.5569V54.1724C29.8768 54.4149 29.3854 55.0592 29.3854 55.8218C29.3854 56.7906 30.1738 57.579 31.1426 57.579C32.1114 57.579 32.8998 56.7906 32.8998 55.8218C32.8998 55.0592 32.4084 54.4149 31.7283 54.1724V51.7217H35.2428V54.1724C34.5627 54.4149 34.0713 55.0592 34.0713 55.8218C34.0713 56.7906 34.8597 57.579 35.8285 57.579C36.7973 57.579 37.5857 56.7906 37.5857 55.8218C37.5857 55.0592 37.0943 54.4149 36.4143 54.1724V51.7217H37.5857V50.5502H40.0365C40.279 51.2302 40.9233 51.7217 41.6859 51.7217ZM41.6859 49.3787C42.0092 49.3787 42.2716 49.6411 42.2716 49.9644C42.2716 50.2878 42.0092 50.5502 41.6859 50.5502C41.3626 50.5502 41.1002 50.2878 41.1002 49.9644C41.1002 49.6411 41.3626 49.3787 41.6859 49.3787ZM41.6859 44.6928C42.0092 44.6928 42.2716 44.9552 42.2716 45.2785C42.2716 45.6019 42.0092 45.8643 41.6859 45.8643C41.3626 45.8643 41.1002 45.6019 41.1002 45.2785C41.1002 44.9552 41.3626 44.6928 41.6859 44.6928ZM41.6859 40.0069C42.0092 40.0069 42.2716 40.2693 42.2716 40.5926C42.2716 40.916 42.0092 41.1784 41.6859 41.1784C41.3626 41.1784 41.1002 40.916 41.1002 40.5926C41.1002 40.2693 41.3626 40.0069 41.6859 40.0069ZM20.5993 41.1784C20.276 41.1784 20.0136 40.916 20.0136 40.5926C20.0136 40.2693 20.276 40.0069 20.5993 40.0069C20.9226 40.0069 21.1851 40.2693 21.1851 40.5926C21.1851 40.916 20.9226 41.1784 20.5993 41.1784ZM20.5993 45.8643C20.276 45.8643 20.0136 45.6019 20.0136 45.2785C20.0136 44.9552 20.276 44.6928 20.5993 44.6928C20.9226 44.6928 21.1851 44.9552 21.1851 45.2785C21.1851 45.6019 20.9226 45.8643 20.5993 45.8643ZM20.5993 50.5502C20.276 50.5502 20.0136 50.2878 20.0136 49.9644C20.0136 49.6411 20.276 49.3787 20.5993 49.3787C20.9226 49.3787 21.1851 49.6411 21.1851 49.9644C21.1851 50.2878 20.9226 50.5502 20.5993 50.5502ZM35.8285 34.1495C36.1518 34.1495 36.4143 34.4125 36.4143 34.7352C36.4143 35.058 36.1518 35.321 35.8285 35.321C35.5052 35.321 35.2428 35.058 35.2428 34.7352C35.2428 34.4125 35.5052 34.1495 35.8285 34.1495ZM31.1426 34.1495C31.4659 34.1495 31.7283 34.4125 31.7283 34.7352C31.7283 35.058 31.4659 35.321 31.1426 35.321C30.8193 35.321 30.5569 35.058 30.5569 34.7352C30.5569 34.4125 30.8193 34.1495 31.1426 34.1495ZM26.4567 34.1495C26.78 34.1495 27.0424 34.4125 27.0424 34.7352C27.0424 35.058 26.78 35.321 26.4567 35.321C26.1334 35.321 25.871 35.058 25.871 34.7352C25.871 34.4125 26.1334 34.1495 26.4567 34.1495ZM26.4567 56.4076C26.1334 56.4076 25.871 56.1452 25.871 55.8218C25.871 55.4985 26.1334 55.2361 26.4567 55.2361C26.78 55.2361 27.0424 55.4985 27.0424 55.8218C27.0424 56.1452 26.78 56.4076 26.4567 56.4076ZM31.1426 56.4076C30.8193 56.4076 30.5569 56.1452 30.5569 55.8218C30.5569 55.4985 30.8193 55.2361 31.1426 55.2361C31.4659 55.2361 31.7283 55.4985 31.7283 55.8218C31.7283 56.1452 31.4659 56.4076 31.1426 56.4076ZM35.8285 56.4076C35.5052 56.4076 35.2428 56.1452 35.2428 55.8218C35.2428 55.4985 35.5052 55.2361 35.8285 55.2361C36.1518 55.2361 36.4143 55.4985 36.4143 55.8218C36.4143 56.1452 36.1518 56.4076 35.8285 56.4076ZM36.4143 50.5502H25.871V40.0069H36.4143V50.5502Z" fill="white"/>
<path d="M52.519 30.6344V30.635C52.3005 29.788 51.9643 28.9785 51.5151 28.2194L53.383 26.3509L50.0695 23.038L48.201 24.9065C47.4418 24.4566 46.6329 24.1204 45.786 23.9019V21.2632H41.1V23.9019C40.2531 24.1204 39.4442 24.4566 38.685 24.9059L36.8165 23.0374L33.503 26.3503L35.3709 28.2188C34.9217 28.9779 34.5855 29.7874 34.367 30.6344H32.314V31.8059H35.3118L35.4073 31.3367C35.6152 30.3111 36.0176 29.3429 36.6033 28.4578L36.8675 28.0589L35.1589 26.3503L36.816 24.6939L38.5246 26.4025L38.9234 26.1383C39.8079 25.5525 40.7761 25.1501 41.8023 24.9422L42.2715 24.8473V22.4347H44.6145V24.8473L45.0837 24.9428C46.1099 25.1507 47.0781 25.5531 47.9626 26.1389L48.3614 26.403L50.07 24.6944L51.7271 26.3509L50.0185 28.0595L50.2827 28.4584C50.8684 29.3434 51.2708 30.3117 51.4787 31.3373L51.5742 31.8065H53.9863V34.1494H51.5742L51.4787 34.6186C51.2708 35.6442 50.8684 36.6125 50.2827 37.4969L50.0185 37.8964L51.7271 39.605L50.07 41.2621L48.3614 39.5535L47.9626 39.8176C47.0775 40.4034 46.1093 40.8064 45.0837 41.0137L44.6145 41.1092V44.107H45.786V42.054C46.6323 41.8361 47.4418 41.4999 48.201 41.05L50.0695 42.9179L53.383 39.6044L51.5151 37.7359C51.9643 36.9768 52.3005 36.1673 52.519 35.3203H55.1578V30.6344H52.519Z" fill="white"/>
<path d="M43.4431 37.6639V38.8354C46.6728 38.8354 49.3005 36.2078 49.3005 32.978C49.3005 29.7482 46.6728 27.1206 43.4431 27.1206C40.2133 27.1206 37.5857 29.7482 37.5857 32.978H38.7572C38.7572 30.3943 40.8594 28.2921 43.4431 28.2921C46.0268 28.2921 48.129 30.3943 48.129 32.978C48.129 35.5617 46.0268 37.6639 43.4431 37.6639Z" fill="white"/>
<path d="M35.2429 41.1782H27.0425V42.3497H35.2429V41.1782Z" fill="white"/>
<path d="M35.2428 48.207H34.0713V49.3785H35.2428V48.207Z" fill="white"/>
<path d="M32.8999 48.207H27.0425V49.3785H32.8999V48.207Z" fill="white"/>
<path d="M40.3978 56.0665L40.6309 57.2151C47.7828 55.7631 53.342 50.2038 54.794 43.052L53.6454 42.8188C52.2883 49.5092 47.0881 54.7093 40.3978 56.0665Z" fill="white"/>
<path d="M33.602 22.775L33.3689 21.627C26.217 23.079 20.6578 28.6382 19.2057 35.7901L20.3544 36.0227C21.7115 29.3335 26.9117 24.1327 33.602 22.775Z" fill="white"/>
</g>
<defs>
<linearGradient id="paint0_linear_1749_2694" x1="37" y1="0" x2="37" y2="74" gradientUnits="userSpaceOnUse">
<stop stop-color="#92EFC3"/>
<stop offset="1" stop-color="#2F8F5B"/>
</linearGradient>
<clipPath id="clip0_1749_2694">
<rect width="36.3158" height="36.3158" fill="white" transform="translate(18.8421 21.2632)"/>
</clipPath>
</defs>
</svg>
